<?xml version="1.0" encoding="UTF-8" standalone="no"?>
<svg
   width="65px"
   viewBox="0 0 65 65"
   version="1.1"
   height="65px"
   id="svg14"
   sodipodi:docname="arch.svg"
   inkscape:version="1.2.1 (9c6d41e410, 2022-07-14)"
   xmlns:inkscape="http://www.inkscape.org/namespaces/inkscape"
   xmlns:sodipodi="http://sodipodi.sourceforge.net/DTD/sodipodi-0.dtd"
   xmlns="http://www.w3.org/2000/svg"
   xmlns:svg="http://www.w3.org/2000/svg">
  <sodipodi:namedview
     id="namedview16"
     pagecolor="#ffffff"
     bordercolor="#666666"
     borderopacity="1.0"
     inkscape:showpageshadow="2"
     inkscape:pageopacity="0.0"
     inkscape:pagecheckerboard="0"
     inkscape:deskcolor="#d1d1d1"
     showgrid="false"
     inkscape:zoom="3.6307692"
     inkscape:cx="30.985169"
     inkscape:cy="32.5"
     inkscape:window-width="2492"
     inkscape:window-height="1012"
     inkscape:window-x="48"
     inkscape:window-y="48"
     inkscape:window-maximized="1"
     inkscape:current-layer="svg14" />
  <defs
     id="defs7">
    <linearGradient
       id="lg"
       y1="9.90843"
       x2="25.431995"
       x1="34.76569"
       y2="28.426884"
       gradientTransform="matrix(0.9319351,0,0,1.0730361,16.944477,3.0359482)"
       gradientUnits="userSpaceOnUse">
      <stop
         stop-color="#fff"
         stop-opacity="0"
         offset="0"
         id="stop2" />
      <stop
         stop-color="#fff"
         stop-opacity=".27451"
         offset="1"
         id="stop4" />
    </linearGradient>
  </defs>
  <path
     d="m32.253 0.20991c-2.849 6.9843-4.579 11.559-7.75 18.336 1.944 2.061 4.334 4.453 8.211 7.164-4.168-1.715-7.009-3.432-9.133-5.219-4.059 8.47-10.423 20.531-23.328 43.719 10.14-5.854 18.002-9.466 25.328-10.844-0.314-1.351-0.481-2.819-0.469-4.344l0.008-0.32c0.161-6.498 3.542-11.495 7.547-11.156 4.004 0.339 7.122 5.884 6.961 12.383-0.031 1.224-0.173 2.4-0.414 3.492 7.247 1.418 15.034 5.013 25.039 10.789-1.973-3.632-3.74-6.905-5.422-10.024-2.649-2.053-5.411-4.724-11.047-7.617 3.874 1.007 6.65 2.171 8.812 3.469-17.098-31.835-18.48-36.068-24.343-49.828v-0.00009z"
     fill="#1793D1"
     id="path9"
     style="fill:#ffffff;fill-opacity:1" />
</svg>
