<?xml version="1.0" encoding="UTF-8" standalone="no"?>
<svg
   viewBox="0 0 24 24"
   version="1.1"
   id="svg4"
   sodipodi:docname="microphone-off.svg"
   inkscape:version="1.2.1 (9c6d41e410, 2022-07-14)"
   xmlns:inkscape="http://www.inkscape.org/namespaces/inkscape"
   xmlns:sodipodi="http://sodipodi.sourceforge.net/DTD/sodipodi-0.dtd"
   xmlns="http://www.w3.org/2000/svg"
   xmlns:svg="http://www.w3.org/2000/svg">
  <defs
     id="defs8" />
  <sodipodi:namedview
     id="namedview6"
     pagecolor="#ffffff"
     bordercolor="#666666"
     borderopacity="1.0"
     inkscape:showpageshadow="2"
     inkscape:pageopacity="0.0"
     inkscape:pagecheckerboard="0"
     inkscape:deskcolor="#d1d1d1"
     showgrid="false"
     inkscape:zoom="9.8333333"
     inkscape:cx="11.949153"
     inkscape:cy="12"
     inkscape:window-width="1248"
     inkscape:window-height="990"
     inkscape:window-x="54"
     inkscape:window-y="54"
     inkscape:window-maximized="0"
     inkscape:current-layer="svg4" />
  <path
     d="M19,11C19,12.19 18.66,13.3 18.1,14.28L16.87,13.05C17.14,12.43 17.3,11.74 17.3,11H19M15,11.16L9,5.18V5A3,3 0 0,1 12,2A3,3 0 0,1 15,5V11L15,11.16M4.27,3L21,19.73L19.73,21L15.54,16.81C14.77,17.27 13.91,17.58 13,17.72V21H11V17.72C7.72,17.23 5,14.41 5,11H6.7C6.7,14 9.24,16.1 12,16.1C12.81,16.1 13.6,15.91 14.31,15.58L12.65,13.92L12,14A3,3 0 0,1 9,11V10.28L3,4.27L4.27,3Z"
     id="path2"
     style="fill:#ffffff;fill-opacity:1" />
</svg>
