<?xml version="1.0" encoding="UTF-8" standalone="no"?>
<svg
   viewBox="0 0 24 24"
   version="1.1"
   id="svg4"
   sodipodi:docname="speaker-off.svg"
   inkscape:version="1.2.1 (9c6d41e410, 2022-07-14)"
   xmlns:inkscape="http://www.inkscape.org/namespaces/inkscape"
   xmlns:sodipodi="http://sodipodi.sourceforge.net/DTD/sodipodi-0.dtd"
   xmlns="http://www.w3.org/2000/svg"
   xmlns:svg="http://www.w3.org/2000/svg">
  <defs
     id="defs8" />
  <sodipodi:namedview
     id="namedview6"
     pagecolor="#ffffff"
     bordercolor="#666666"
     borderopacity="1.0"
     inkscape:showpageshadow="2"
     inkscape:pageopacity="0.0"
     inkscape:pagecheckerboard="0"
     inkscape:deskcolor="#d1d1d1"
     showgrid="false"
     inkscape:zoom="9.8333333"
     inkscape:cx="12.050847"
     inkscape:cy="12"
     inkscape:window-width="2508"
     inkscape:window-height="1028"
     inkscape:window-x="48"
     inkscape:window-y="48"
     inkscape:window-maximized="1"
     inkscape:current-layer="svg4" />
  <path
     d="M2,5.27L3.28,4L21,21.72L19.73,23L18.27,21.54C17.93,21.83 17.5,22 17,22H7C5.89,22 5,21.1 5,20V8.27L2,5.27M12,18A3,3 0 0,1 9,15C9,14.24 9.28,13.54 9.75,13L8.33,11.6C7.5,12.5 7,13.69 7,15A5,5 0 0,0 12,20C13.31,20 14.5,19.5 15.4,18.67L14,17.25C13.45,17.72 12.76,18 12,18M17,15A5,5 0 0,0 12,10H11.82L5.12,3.3C5.41,2.54 6.14,2 7,2H17A2,2 0 0,1 19,4V17.18L17,15.17V15M12,4C10.89,4 10,4.89 10,6A2,2 0 0,0 12,8A2,2 0 0,0 14,6C14,4.89 13.1,4 12,4Z"
     id="path2"
     style="fill:#ffffff;fill-opacity:1" />
</svg>
